<svg width="28" height="24" viewBox="0 0 28 24" fill="none" xmlns="http://www.w3.org/2000/svg">
<path d="M10.987 15.8176L10.5238 22.5184C11.1865 22.5184 11.4735 22.2256 11.8177 21.874L14.9246 18.82L21.3624 23.6692C22.5431 24.346 23.3749 23.9896 23.6934 22.552L27.9192 2.18568L27.9204 2.18448C28.2949 0.389285 27.2892 -0.312712 26.1388 0.127686L1.29991 9.90884C-0.395302 10.5856 -0.369635 11.5576 1.01173 11.998L7.36205 14.0296L22.1126 4.53646C22.8068 4.06367 23.4379 4.32526 22.9188 4.79806L10.987 15.8176Z" fill="white"/>
<path d="M10.987 15.8176L10.5238 22.5184C11.1865 22.5184 11.4735 22.2256 11.8177 21.874L14.9246 18.82L21.3624 23.6692C22.5431 24.346 23.3749 23.9896 23.6934 22.552L27.9192 2.18568L27.9204 2.18448C28.2949 0.389285 27.2892 -0.312712 26.1388 0.127686L1.29991 9.90884C-0.395302 10.5856 -0.369635 11.5576 1.01173 11.998L7.36205 14.0296L22.1126 4.53646C22.8068 4.06367 23.4379 4.32526 22.9188 4.79806L10.987 15.8176Z" fill="#010101"/>
</svg>
