<svg width="31" height="17" viewBox="0 0 31 17" fill="none" xmlns="http://www.w3.org/2000/svg">
<path d="M15.3498 15.9552H17.1576C17.1576 15.9552 17.7036 15.8997 17.9827 15.6226C18.2393 15.368 18.2312 14.89 18.2312 14.89C18.2312 14.89 18.1958 12.6521 19.3215 12.3225C20.4316 11.9977 21.8567 14.4854 23.3672 15.442C24.5095 16.1657 25.3775 16.0073 25.3775 16.0073L29.4167 15.9552C29.4167 15.9552 31.5296 15.8349 30.5277 14.3023C30.4457 14.1772 29.944 13.1686 27.5243 11.0965C24.9914 8.92783 25.331 9.27869 28.3818 5.52726C30.2398 3.24268 30.9825 1.84798 30.7504 1.2507C30.5293 0.681615 29.1626 0.831925 29.1626 0.831925L24.6148 0.857875C24.6148 0.857875 24.2774 0.815488 24.0276 0.953437C23.7831 1.08837 23.6262 1.4036 23.6262 1.4036C23.6262 1.4036 22.9061 3.17137 21.9465 4.67497C19.9215 7.84734 19.1116 8.01528 18.7805 7.81799C18.0104 7.35883 18.2028 5.97377 18.2028 4.98952C18.2028 1.91501 18.7083 0.633156 17.2185 0.301279C16.7242 0.191233 16.3601 0.118435 15.0957 0.106543C13.4729 0.0913381 12.0997 0.11113 11.322 0.462629C10.8046 0.696396 10.4054 1.21719 10.6487 1.24717C10.9493 1.28408 11.6299 1.41664 11.9907 1.8696C12.4569 2.4547 12.4406 3.76823 12.4406 3.76823C12.4406 3.76823 12.7085 7.38741 11.8152 7.83685C11.2023 8.1452 10.3613 7.51572 8.55578 4.63755C7.63085 3.16326 6.93229 1.53348 6.93229 1.53348C6.93229 1.53348 6.79777 1.22895 6.5575 1.06595C6.26609 0.868451 5.85889 0.805846 5.85889 0.805846L1.53711 0.831882C1.53711 0.831882 0.888449 0.848616 0.650115 1.10884C0.438068 1.34053 0.633173 1.81919 0.633173 1.81919C0.633173 1.81919 4.01644 9.12193 7.84769 12.8021C11.361 16.1767 15.3498 15.9552 15.3498 15.9552Z" fill="#010101"/>
</svg>
