<?xml version="1.0" encoding="utf-8"?><svg viewBox="0 0 566 436" xmlns="http://www.w3.org/2000/svg" xmlns:xlink="http://www.w3.org/1999/xlink"><style>:root>svg{display:none}:root>svg:target{display:block}</style><svg viewBox="0 0 40 40" id="btn-close" xmlns="http://www.w3.org/2000/svg"><circle cx="20" cy="20" r="19.5"/><path d="M28.678 12.414L12.414 28.678m15.557 0L11.707 12.414"/></svg><svg viewBox="0 0 12 22" id="down-arrow" xmlns="http://www.w3.org/2000/svg"><path fill-rule="evenodd" d="M.307 15.722l4.983 5.003a.993.993 0 001.409 0l4.983-5.003a1 1 0 00-.704-1.708H6.991V1.011A.998.998 0 005.995.01a.999.999 0 00-.997 1.001v13.003H1.012a1.001 1.001 0 00-.705 1.708zm8.265.293l-2.577 2.588-2.578-2.588h5.155z"/></svg><svg viewBox="0 0 566 436" id="ellipse" xmlns="http://www.w3.org/2000/svg"><path d="M369.939 381.537C221.463 460.62 62.047 451.408 13.873 360.963-34.301 270.517 47.01 133.087 195.486 54.005c148.477-79.083 307.893-69.872 356.067 20.574 48.174 90.445-33.137 227.875-181.614 306.958z"/><path d="M369.939 381.537C221.463 460.62 62.047 451.408 13.873 360.963-34.301 270.517 47.01 133.087 195.486 54.005c148.477-79.083 307.893-69.872 356.067 20.574 48.174 90.445-33.137 227.875-181.614 306.958z"/><defs><linearGradient id="ca" x1="325.199" y1="-4.829" x2="491.257" y2="311.771" gradientUnits="userSpaceOnUse"><stop stop-color="#DDFF50"/><stop offset="1" stop-color="#CBF619"/></linearGradient></defs></svg><svg viewBox="0 0 9 15" id="right-arrow" xmlns="http://www.w3.org/2000/svg"><path fill-rule="evenodd" clip-rule="evenodd" d="M1.707.429l6.364 6.364a1 1 0 010 1.414l-6.364 6.364a1 1 0 01-1.414-1.414L5.95 7.5.293 1.843A1 1 0 111.707.43z"/></svg><svg viewBox="0 0 28 24" id="tg" xmlns="http://www.w3.org/2000/svg"><path d="M10.987 15.818l-.463 6.7c.663 0 .95-.292 1.294-.644l3.107-3.054 6.437 4.85c1.181.676 2.013.32 2.331-1.118L27.92 2.186l.001-.002C28.295.39 27.29-.313 26.14.128L1.3 9.908c-1.694.678-1.669 1.65-.287 2.09l6.35 2.032 14.75-9.494c.695-.472 1.326-.21.807.262l-11.932 11.02z"/><path d="M10.987 15.818l-.463 6.7c.663 0 .95-.292 1.294-.644l3.107-3.054 6.437 4.85c1.181.676 2.013.32 2.331-1.118L27.92 2.186l.001-.002C28.295.39 27.29-.313 26.14.128L1.3 9.908c-1.694.678-1.669 1.65-.287 2.09l6.35 2.032 14.75-9.494c.695-.472 1.326-.21.807.262l-11.932 11.02z"/></svg><svg viewBox="0 0 31 17" id="vk" xmlns="http://www.w3.org/2000/svg"><path d="M15.35 15.955h1.808s.546-.055.825-.332c.256-.255.248-.733.248-.733s-.035-2.238 1.09-2.568c1.11-.324 2.536 2.163 4.046 3.12 1.142.724 2.01.565 2.01.565l4.04-.052s2.113-.12 1.11-1.653c-.081-.125-.583-1.133-3.003-3.205-2.533-2.17-2.193-1.818.858-5.57 1.858-2.284 2.6-3.679 2.368-4.276-.22-.57-1.587-.42-1.587-.42l-4.548.027s-.338-.043-.587.095c-.245.135-.402.45-.402.45s-.72 1.768-1.68 3.272c-2.024 3.172-2.834 3.34-3.166 3.143-.77-.46-.577-1.844-.577-2.828 0-3.075.505-4.357-.985-4.689-.494-.11-.858-.183-2.122-.194C13.473.09 12.1.11 11.322.463c-.517.233-.917.754-.673.784.3.037.98.17 1.342.623.466.585.45 1.898.45 1.898s.268 3.62-.626 4.069c-.613.308-1.454-.321-3.26-3.2-.924-1.474-1.623-3.104-1.623-3.104s-.134-.304-.375-.467c-.29-.198-.698-.26-.698-.26L1.537.832S.888.849.65 1.109c-.212.232-.017.71-.017.71s3.383 7.303 7.215 10.983c3.513 3.375 7.502 3.153 7.502 3.153z"/></svg></svg>